name C:\Users\u0101727\Documents\MyRepositories\3dpredictsim_mobilecap/Results/TrackSim_mtp/IK_c33_99.mot																																																																																																																															
datacolumns 128																																																																																																																															
datarows 8																																																																																																																															
range 1.94 2.08																																																																																																																															
endheader																																																																																																																															
time	pelvis_tilt	pelvis_list	pelvis_rotation	pelvis_tx	pelvis_ty	pelvis_tz	hip_flexion_l	hip_adduction_l	hip_rotation_l	hip_flexion_r	hip_adduction_r	hip_rotation_r	knee_angle_l	knee_adduction_l	knee_angle_r	knee_adduction_r	ankle_angle_l	ankle_angle_r	subtalar_angle_l	subtalar_angle_r	mtp_angle_l	mtp_angle_r	lumbar_extension	lumbar_bending	lumbar_rotation	arm_flex_l	arm_add_l	arm_rot_l	arm_flex_r	arm_add_r	arm_rot_r	elbow_flex_l	elbow_flex_r	pro_sup_l	pro_sup_r	glut_med1_l/activation	glut_med2_l/activation	glut_med3_l/activation	glut_min1_l/activation	glut_min2_l/activation	glut_min3_l/activation	semimem_l/activation	semiten_l/activation	bifemlh_l/activation	bifemsh_l/activation	sar_l/activation	add_long_l/activation	add_brev_l/activation	add_mag1_l/activation	add_mag2_l/activation	add_mag3_l/activation	tfl_l/activation	pect_l/activation	grac_l/activation	glut_max1_l/activation	glut_max2_l/activation	glut_max3_l/activation	iliacus_l/activation	psoas_l/activation	quad_fem_l/activation	gem_l/activation	peri_l/activation	rect_fem_l/activation	vas_med_l/activation	vas_int_l/activation	vas_lat_l/activation	med_gas_l/activation	lat_gas_l/activation	soleus_l/activation	tib_post_l/activation	flex_dig_l/activation	flex_hal_l/activation	tib_ant_l/activation	per_brev_l/activation	per_long_l/activation	per_tert_l/activation	ext_dig_l/activation	ext_hal_l/activation	ercspn_l/activation	intobl_l/activation	extobl_l/activation	glut_med1_r/activation	glut_med2_r/activation	glut_med3_r/activation	glut_min1_r/activation	glut_min2_r/activation	glut_min3_r/activation	semimem_r/activation	semiten_r/activation	bifemlh_r/activation	bifemsh_r/activation	sar_r/activation	add_long_r/activation	add_brev_r/activation	add_mag1_r/activation	add_mag2_r/activation	add_mag3_r/activation	tfl_r/activation	pect_r/activation	grac_r/activation	glut_max1_r/activation	glut_max2_r/activation	glut_max3_r/activation	iliacus_r/activation	psoas_r/activation	quad_fem_r/activation	gem_r/activation	peri_r/activation	rect_fem_r/activation	vas_med_r/activation	vas_int_r/activation	vas_lat_r/activation	med_gas_r/activation	lat_gas_r/activation	soleus_r/activation	tib_post_r/activation	flex_dig_r/activation	flex_hal_r/activation	tib_ant_r/activation	per_brev_r/activation	per_long_r/activation	per_tert_r/activation	ext_dig_r/activation	ext_hal_r/activation	ercspn_r/activation	intobl_r/activation	extobl_r/activation
1.94	-8.89903722	-3.06895207	0.85186549	-0.45977237	1.50378369	-0.5888742	24.09489284	-10.00388789	-2.98786958	21.70864841	-3.55272845	-4.02887509	-8.70176106	3.5148824	-7.99476397	1.96387027	-36.71861118	-27.78735769	-11.27364577	-6.78984554	0.25862562	0.22551945	-22.69016315	0.41660622	4.33428941	-23.68429093	-52.102489	-2.97722256	-74.99501541	-19.64742173	-43.84524316	129.0795089	120.1640991	116.6046531	137.7251795	0.00201196	0.01791097	0.02442248	0.00800591	0.01574924	0.01972699	0.1787726	0.06600201	0.06284254	0.14889747	0.02958724	0.00007793	0.00008665	0.00009496	0.00009911	0.00006739	0.03242696	0.00051783	0.00168811	0.00526797	0.00606499	0.00006599	0.0480908	0.04863732	0.00331252	0.00650457	0.01249493	0.00048826	0.00131627	0.00054799	0.00083438	0.0539509	0.03528498	0.00608249	0.00004809	0.00027948	0.00035837	0.00008398	0.01499409	0.03275858	0.00570378	0.00116313	0.00064215	0.06822051	0.05507475	0.0000671	0.00016918	0.07327022	0.09727434	0.00102225	0.01306547	0.04396972	0.13340837	0.02354835	0.03300467	0.13566797	0.0505706	0.00026888	0.00032121	0.00045145	0.00025581	0.00009683	0.07975892	0.00041022	0.00054807	0.01166137	0.00271138	0.00059892	0.01832067	0.0265922	0.00829009	0.01260232	0.02632553	0.00047335	0.00100118	0.00071532	0.00146815	0.03427104	0.03818668	0.00007433	0.00015934	0.00030543	0.00033411	0.01637954	0.01904248	0.03033828	0.01953952	0.0431099	0.00684892	0.14552707	0.00007136	0.0001755
1.96	-8.217107	-2.71227684	0.9584017	-0.43900971	1.45762214	-0.58701129	22.65020968	-10.06537787	-3.35786774	20.19162636	-3.78911496	-4.54257535	-6.60256962	3.86089482	-5.60292491	1.3903058	-35.80779363	-27.87818794	-11.50752532	-7.34382114	0.44155118	0.44774059	-22.495627	0.16652139	2.2711311	-39.62001021	-49.61214452	-13.30508458	-75.99882523	-17.95215581	-40.56667908	131.1997764	120.4029262	117.3803369	137.8495672	0.00134676	0.01195979	0.01639792	0.00536064	0.01054387	0.01348497	0.20685191	0.04767297	0.04192446	0.19313065	0.04369458	0.00007881	0.0000796	0.00008363	0.00008323	0.0000529	0.03488018	0.00062634	0.00349932	0.00353678	0.00405018	0.00005127	0.09108527	0.0569779	0.00224516	0.00461602	0.00867475	0.00032691	0.00087942	0.00036664	0.0005573	0.08887912	0.08654021	0.00411238	0.00190312	0.01221462	0.01333451	0.00009362	0.01001462	0.02184974	0.00382096	0.00078997	0.00055459	0.04549228	0.03687531	0.00006564	0.00011903	0.04897537	0.10562649	0.00070546	0.00875237	0.03627107	0.19057181	0.03121678	0.02204542	0.22547731	0.07556832	0.00018189	0.00021718	0.0003048	0.00017511	0.00006768	0.05365521	0.00032481	0.0004259	0.00784568	0.00182057	0.00040149	0.06505043	0.01825305	0.00569513	0.02750911	0.12362848	0.00031661	0.00066928	0.00047827	0.00098008	0.12706797	0.02557916	0.00005931	0.00011187	0.00026813	0.00029822	0.04317595	0.01298044	0.02030035	0.02225191	0.05313451	0.01028089	0.11125021	0.00007073	0.00014646
1.98	-7.6390208	-2.38034538	1.02108078	-0.41890398	1.40740467	-0.58558607	22.02734716	-10.25622316	-3.45587999	19.39031369	-4.23957233	-5.16794337	-6.33235988	4.52521349	-4.74102197	1.21523509	-35.08333033	-28.75029039	-11.47086382	-7.56180873	1.27811592	1.3481441	-22.07966525	-0.07666887	0.70129918	-50.70539687	-45.19189783	-18.81776187	-76.51952408	-16.11152321	-37.58922064	131.5835387	120.210135	118.5339797	137.6478481	0.00090096	0.00798452	0.01102254	0.00358619	0.00705115	0.00911424	0.21890057	0.09739122	0.23036929	0.29246427	0.07649869	0.00007304	0.00006942	0.00007118	0.00006764	0.00004076	0.05478399	0.00071826	0.00510094	0.00237746	0.00270593	0.0000397	0.18087079	0.18822926	0.0022958	0.02392422	0.04048058	0.00021928	0.00058773	0.00024544	0.00037234	0.16032237	0.14901793	0.06213903	0.00128007	0.00825059	0.01037981	0.0000688	0.00669673	0.01459012	0.00256133	0.00053574	0.00040508	0.03033416	0.02601505	0.00006958	0.00008292	0.03268987	0.15613385	0.00048346	0.00585396	0.02483389	0.21576595	0.08251107	0.22039197	0.32570738	0.1103025	0.00012408	0.00014788	0.00020694	0.00012098	0.00004781	0.04046064	0.00028786	0.0004111	0.00526604	0.00122252	0.0002696	0.17280392	0.21351212	0.06891405	0.04895484	0.08249143	0.00021195	0.0004476	0.00031993	0.0006544	0.15689756	0.11360074	0.00007146	0.00008155	0.00027182	0.00050862	0.02880448	0.00876763	0.01358911	0.01520458	0.03546411	0.00702109	0.07420056	0.00009167	0.02537847
2	-6.67940281	-2.10781983	1.10741561	-0.39997772	1.35434779	-0.58479007	21.9385614	-10.52171154	-3.7010223	19.09323286	-4.89449015	-6.66345112	-8.11542784	5.20981395	-5.95250234	1.28467191	-39.06551188	-35.11118316	-10.78294328	-7.1343719	0.94362667	0.80787903	-22.14180774	-0.20658529	-0.45523688	-56.69804572	-40.17012163	-20.11962216	-76.28873402	-14.22876683	-34.96228948	130.5931371	119.6720033	119.8843316	137.2543624	0.00060296	0.00533179	0.00737894	0.00239978	0.00471615	0.00614663	0.19860088	0.07876213	0.17507603	0.40126468	0.10078913	0.00006726	0.0000616	0.00006241	0.00005627	0.00003214	0.04224683	0.0007869	0.00390079	0.00160287	0.00180957	0.0000317	0.17595262	0.16379532	0.01521089	0.03102435	0.02716429	0.00014774	0.00039299	0.00016447	0.00024888	0.10690277	0.09939278	0.06173505	0.00085561	0.00551365	0.00694017	0.00004879	0.00453265	0.08280641	0.00172415	0.00036725	0.00028894	0.02022746	0.01744359	0.00012506	0.0000587	0.0218287	0.10415539	0.00033471	0.0039179	0.02564569	0.20011387	0.05517688	0.14699526	0.4596284	0.1282102	0.00008582	0.00010189	0.00014175	0.00008489	0.00003453	0.02705848	0.00026648	0.00040799	0.00353642	0.00082208	0.00018157	0.17197998	0.15039299	0.04598195	0.03278273	0.05542513	0.00014213	0.00029953	0.00021417	0.00043709	0.10461215	0.07574864	0.08300967	0.00005895	0.0002217	0.00289804	0.01921102	0.03919358	0.06152799	0.01043112	0.02366739	0.00474277	0.04947724	0.00013489	0.03320214
2.02	-5.27588224	-1.82383073	1.09440086	-0.38269033	1.29828842	-0.58442367	22.65074141	-10.67731967	-4.29246719	19.73160857	-5.65310006	-8.43323622	-13.02951972	5.51947759	-10.55531266	1.20438333	-43.22246612	-40.85130234	-10.12837833	-6.93264513	-0.40499335	-0.57432588	-22.83530903	-0.32067447	-1.19419088	-58.97316232	-35.55972538	-18.98015144	-75.20354405	-12.4617156	-32.63702729	128.7696826	118.9264828	121.2447699	136.9745919	0.00040402	0.0035625	0.00493173	0.00160761	0.00315721	0.00414881	0.13248578	0.05255225	0.11681214	0.2719006	0.1044497	0.00006451	0.00005676	0.00005608	0.00004807	0.00002604	0.04341386	0.000825	0.00266757	0.00108577	0.00121202	0.00002563	0.11733551	0.10925583	0.01017289	0.02088186	0.01814389	0.00010257	0.00026304	0.00011044	0.00016654	0.07128641	0.06628158	0.04116505	0.00057166	0.00368359	0.00463731	0.00010198	0.15125753	0.05522566	0.10051119	0.19362211	0.00257283	0.01349224	0.04499415	0.00010412	0.00004428	0.01458165	0.06944937	0.00024056	0.00262641	0.02369169	0.13341931	0.0368014	0.09800645	0.31616884	0.15671857	0.00006129	0.00007185	0.00009854	0.00006105	0.00002574	0.09835671	0.00027245	0.00033367	0.00237623	0.00055362	0.00012277	0.13625957	0.14099504	0.03066636	0.02192299	0.03697355	0.00009574	0.00020069	0.00014359	0.00029214	0.06975378	0.05051576	0.05534509	0.00004185	0.0001647	0.00193994	0.01325653	0.03449897	0.04103723	0.05929868	0.15119461	0.01120714	0.03299212	0.0001001	0.02214513
2.04	-4.6367312	-1.28353074	0.54128487	-0.36722516	1.23648375	-0.58383594	25.35558684	-10.28780315	-5.46170417	22.94972447	-6.41646464	-9.19935519	-21.54757777	4.61404414	-19.37374619	0.05742532	-37.42021805	-35.21428719	-9.1398188	-4.20018681	-2.70306226	-2.23240938	-22.73528745	-0.84874275	-1.32784489	-59.10530903	-31.78259993	-16.68603971	-73.41524575	-10.94895789	-30.43134542	126.5683174	118.0036677	122.4835824	137.1274144	0.00027115	0.00239229	0.29737054	0.00107774	0.00211558	0.00284969	0.08832563	0.03503961	0.0778779	0.18126983	0.06965045	0.00005015	0.00005063	0.0000608	0.00004885	0.00002702	0.02896791	0.00059519	0.00178913	0.00517307	0.07320491	0.0000618	0.07822658	0.0728403	0.14481005	0.04972231	0.16286406	0.36554951	0.00018421	0.00008444	0.00012199	0.04760285	0.05396531	0.02745796	0.00038422	0.00249897	0.00660838	0.00008161	0.10086218	0.23696041	0.06701796	0.12908493	0.00175865	0.00900614	0.03000153	0.0000746	0.00003196	0.00974804	0.31810094	0.00016741	0.00175765	0.01583759	0.08894773	0.02453842	0.06534105	0.21078212	0.10449736	0.00004613	0.00005499	0.00007483	0.0000499	0.0000233	0.06557963	0.00028649	0.00023842	0.00172054	0.00041243	0.00008744	0.09084268	0.09399972	0.16521716	0.07480146	0.19060797	0.12688508	0.0001382	0.00010025	0.00019956	0.04651061	0.03368967	0.03690252	0.00003166	0.00013444	0.00130342	0.04159623	0.02302961	0.24003671	0.0395687	0.10080787	0.00768582	0.04439648	0.0000757	0.01476716
2.06	-5.27817095	-0.73398798	-0.34013853	-0.35361052	1.16889352	-0.58271818	30.46758429	-9.71036305	-8.61955936	28.99501296	-6.59788084	-12.01237492	-33.71446822	1.57597655	-31.9995845	-4.10409254	-18.19063277	-16.02718868	-5.57825682	2.47771649	-3.06595103	-3.09379407	-21.26307774	-1.52187271	-1.00876564	-57.86920248	-28.97715846	-13.82062475	-70.83650263	-9.80665276	-28.11092108	124.2854965	116.9298355	123.5157251	137.9582025	0.00018754	0.09149687	0.19826869	0.00073443	0.00145884	0.04650959	0.05889296	0.02336719	0.05192857	0.12084961	0.04644328	0.00004491	0.00005546	0.00007206	0.000067	0.0000532	0.01932875	0.00045745	0.00120532	0.05564392	0.04931513	0.00007701	0.05215375	0.04856317	0.09655234	0.03318811	0.10859665	0.24513561	0.33576538	0.34969362	0.47078531	0.15834582	0.11020654	0.68965713	0.0002598	0.0017309	0.0053837	0.00017265	0.11054299	0.18556376	0.04469302	0.08606294	0.00129239	0.13149263	0.02000432	0.00005326	0.00002411	0.00652748	0.21230513	0.00011839	0.00117758	0.01058749	0.05930396	0.01636435	0.04357542	0.14052463	0.06967774	0.0000383	0.00005165	0.00008037	0.00005947	0.00003665	0.04372692	0.00033455	0.00017907	0.0460708	0.08739123	0.00010571	0.06056413	0.06266901	0.11016295	0.04989525	0.12722103	0.32583671	0.32602963	0.33801134	0.44034451	0.13147621	0.04957221	0.3807141	0.00002569	0.00011459	0.00088413	0.02775714	0.19375604	0.24293319	0.02640508	0.06721313	0.00518599	0.17264175	0.00005642	0.00984667
2.08	-6.86066157	-0.38382424	-0.75356477	-0.34172638	1.10326017	-0.58186173	36.04196195	-9.62460028	-10.65619893	34.98126951	-6.81045048	-15.26915495	-44.84008605	-1.15966094	-43.10895664	-8.57556602	4.00362525	6.58196069	0.62272616	9.98230883	-1.41856791	-1.09128496	-19.02442963	-1.8934598	-0.92080511	-54.53629445	-27.02539753	-10.25839818	-66.19961722	-9.04817348	-25.22329296	121.2631675	114.9658726	124.2266263	139.5990683	0.00012926	0.06103483	0.22772482	0.0005002	0.00099044	0.03106239	0.03926981	0.01559112	0.03464142	0.08056967	0.03097016	0.00004114	0.00006448	0.00012992	0.00011796	0.00012042	0.012896	0.00037697	0.00082008	0.06171931	0.18983031	0.13573561	0.03477137	0.03237789	0.12363573	0.03936191	0.12181839	0.16343159	0.31102574	0.33771344	0.47145652	0.10557055	0.07348247	0.51267312	0.00017545	0.00119225	0.00361392	0.02897042	0.10682618	0.19568004	0.02981698	0.05738378	0.00102312	0.1498568	0.0133383	0.00003904	0.00001902	0.00436394	0.29111484	0.00008543	0.00079001	0.0070739	0.03954031	0.010917	0.02923563	0.09368685	0.04646474	0.00003205	0.00005249	0.00013294	0.00009486	0.00008822	0.02915744	0.00033151	0.0001468	0.08598068	0.20566799	0.1580626	0.04037802	0.04178147	0.15929794	0.06651424	0.13875158	0.21723503	0.23621191	0.26413454	0.38953042	0.08766318	0.03308282	0.49430551	0.00027311	0.00013978	0.00061818	0.0510196	0.12918156	0.23037667	0.01763296	0.04481865	0.00352948	0.23645838	0.00004625	0.00656592
